<?xml version="1.0" encoding="utf-8"?>
<svg viewBox="227 227 46 46" width="46" height="46" xmlns="http://www.w3.org/2000/svg">
  <rect style="" x="227" y="227" width="46" height="46" rx="4" ry="4"/>
  <path d="M 256.873 255.508 L 257.283 246.088 L 257.193 246.078 L 251.483 261.868 L 248.613 261.868 L 242.933 246.138 L 242.843 246.148 L 243.253 255.508 L 243.253 258.868 L 245.533 259.308 L 245.533 261.868 L 236.703 261.868 L 236.703 259.308 L 238.973 258.868 L 238.973 243.558 L 236.703 243.118 L 236.703 240.538 L 238.973 240.538 L 244.553 240.538 L 249.993 256.258 L 250.073 256.258 L 255.553 240.538 L 263.433 240.538 L 263.433 243.118 L 261.153 243.558 L 261.153 258.868 L 263.433 259.308 L 263.433 261.868 L 254.603 261.868 L 254.603 259.308 L 256.873 258.868 L 256.873 255.508 Z" style="fill:#fff"/>
</svg>
