<svg xmlns="http://www.w3.org/2000/svg" width="139" height="167" fill="none"><path fill="#899DC4" d="M68.6 166.1h-.2c-4.8-.3-8.7-2.4-11-5.9h-2.1c-4.2 0-7.6-3.4-7.6-7.6 0-.8.1-1.5.3-2.2-.2-.7-.3-1.5-.3-2.2 0-.8.1-1.5.3-2.2-.2-.7-.3-1.5-.3-2.2 0-.7.1-1.5.3-2.2-.2-.7-.3-1.5-.3-2.2 0-.7.1-1.5.3-2.2-.2-.7-.3-1.5-.3-2.2 0-.8.1-1.5.3-2.2-.2-.7-.3-1.5-.3-2.2 0-1.8.6-3.4 1.7-4.7-.1-.8-.2-1.7-.3-2.6-.4-3.5-6-12.4-10.4-19.5-3.3-5.2-6.6-10.5-9.1-15.3-.4-.7-.7-1.5-1.1-2.4l-.1-.3c-.3-.7-.5-1.4-.8-2.2l-.1-.4c-.2-.7-.4-1.5-.5-2.2l-.1-.3c-.2-.8-.3-1.5-.4-2.3v-.2c-.2-1.5-.3-3-.3-4.5v-.2c0-.7 0-1.4.1-2.1v-.3c0-.7.1-1.3.2-1.9V69c.7-6.7 2.9-11.7 3-11.9l.1-.2.1-.2c11.9-23.2 33.1-25 39.3-25h1.2c6.2 0 27.4 1.8 39.3 25l.1.2.1.2c.2.5 5.3 12.6 2.2 25l-.1.3-.3.9c-.1.2-.1.4-.2.6l-.3.9c-.1.3-.2.4-.2.6-.1.3-.3.7-.4 1-.1.2-.1.4-.2.5-.2.5-.5 1-.7 1.5-2.4 4.8-5.8 10.1-9.1 15.3-4.5 7.1-10 16-10.4 19.5-.1.8-.2 1.7-.3 2.6 1 1.3 1.7 3 1.7 4.7 0 .8-.1 1.5-.3 2.2.2.7.3 1.5.3 2.2 0 .8-.1 1.5-.3 2.2.2.7.3 1.5.3 2.2 0 .7-.1 1.5-.3 2.2.2.7.3 1.5.3 2.2 0 .8-.1 1.5-.3 2.2.2.7.3 1.5.3 2.2 0 .8-.1 1.5-.3 2.2.2.7.3 1.5.3 2.2 0 4.2-3.4 7.6-7.6 7.6h-2.1c-2.4 3.5-6.2 5.6-11 5.9h-2.1v.1Z"/><path fill="#BDEAEB" d="M67.4 163.9h-.2c-4.8-.3-8.7-2.4-11-5.9h-2.1c-4.2 0-7.6-3.4-7.6-7.6 0-.8.1-1.5.3-2.2-.2-.7-.3-1.5-.3-2.2 0-.8.1-1.5.3-2.2-.2-.7-.3-1.5-.3-2.2 0-.8.1-1.5.3-2.2-.2-.7-.3-1.5-.3-2.2 0-.7.1-1.5.3-2.2-.2-.7-.3-1.5-.3-2.2 0-.8.1-1.5.3-2.2-.2-.7-.3-1.5-.3-2.2 0-1.8.6-3.4 1.7-4.7-.1-.8-.2-1.7-.3-2.6-.4-3.5-6-12.4-10.4-19.5-3.3-5.2-6.6-10.5-9.1-15.3-.4-.7-.7-1.5-1.1-2.4l-.1-.3c-.3-.7-.5-1.4-.8-2.2l-.1-.4c-.2-.7-.4-1.5-.5-2.2l-.1-.3c-.2-.8-.3-1.5-.4-2.3V76c-.2-1.5-.3-3-.3-4.5v-.2c0-.7 0-1.4.1-2.1v-.3c0-.7.1-1.3.2-1.9v-.2c.7-6.7 2.9-11.7 3-11.9l.1-.2.1-.2c11.9-23.2 33.1-25 39.3-25H69c6.2 0 27.4 1.8 39.3 25l.1.2.1.2c.2.5 5.3 12.6 2.2 25l-.1.3-.3.9c-.1.2-.1.4-.2.6l-.3.9c-.1.3-.2.4-.2.6-.1.3-.3.7-.4 1-.1.2-.1.4-.2.5-.2.5-.5 1-.7 1.5-2.4 4.8-5.8 10.1-9.1 15.3-4.5 7.1-10 16-10.4 19.5-.1.8-.2 1.7-.3 2.6 1 1.3 1.7 3 1.7 4.7 0 .8-.1 1.5-.3 2.2.2.7.3 1.5.3 2.2 0 .8-.1 1.5-.3 2.2.2.7.3 1.5.3 2.2 0 .7-.1 1.5-.3 2.2.2.7.3 1.5.3 2.2 0 .8-.1 1.5-.3 2.2.2.7.3 1.5.3 2.2 0 .8-.1 1.5-.3 2.2.2.7.3 1.5.3 2.2 0 4.2-3.4 7.6-7.6 7.6h-2.1c-2.4 3.5-6.2 5.6-11 5.9h-2.1v.1Z"/><path fill="#FCE18E" d="M103.6 56.8c-10.8-21.2-30-22.3-35.2-22.1-5.2-.1-24.4 1-35.2 22.1 0 0-6.3 14.7 0 26.9s19.2 29.1 20.1 36.6c.8 7.5 1.1 14.3 1.1 14.3H82.6s.2-6.8 1.1-14.3c.8-7.5 13.8-24.4 20.1-36.6 6.1-12.3-.2-26.9-.2-26.9Z"/><path fill="#FFD705" d="M103.6 56.8c-10.8-21.2-30-22.3-35.2-22.1-5.2-.1-24.4 1-35.2 22.1 0 0-6.3 14.7 0 26.9s19.2 29.1 20.1 36.6c.8 7.5 1.1 14.3 1.1 14.3h28.1s.2-6.8 1.1-14.3c.8-7.5 13.8-24.4 20.1-36.6 6.2-12.3-.1-26.9-.1-26.9Zm-5.3 15.9c-.5 2.5-1.4 5-2.6 7.3-1.3 2.3-2.9 4.4-4.8 6.1-2.1 1.9-4.5 3.3-7.2 4.4-3 1.2-6.2 1.8-9.4 2.1-3.5.4-7 .5-10.5.2-3.5-.2-7-.8-10.4-1.8-3.3-.9-6.5-2.3-9.3-4.2-2.8-1.8-5.2-4.1-7-6.8-2-2.9-3.2-6.3-3.6-9.9-.4-3.7.1-7.5 1.3-11 1.2-3.6 3.1-7 5.5-9.9 2.4-3 5.3-5.5 8.6-7.4 3-1.8 6.4-3 9.9-3.3 3.8-1 7.8-1.2 11.7-1 2.2.1 4.4.4 6.5.8 1.4.3 2.9.7 4.2 1.2 2.6 1 5 2.4 7.1 4.1 2.1 1.7 3.9 3.7 5.4 6 1.5 2.2 2.7 4.7 3.5 7.2.9 2.5 1.4 5.2 1.6 7.9.2 2.7.1 5.4-.5 8Z"/><path fill="#FFD601" d="M105.1 79.5c-1.6 3.7-3.8 7.1-6.5 10.1s-5.8 5.6-9.2 7.8c-3.5 2.2-7.2 3.8-11.2 5-4 1.1-8.1 1.7-12.3 1.6-4.5-.1-9-.9-13.1-2.7-4.1-1.7-7.8-4.3-11-7.5-3.4-3.5-6-7.6-7.9-12.1-1.9-4.5-2.9-9.3-3.3-14.2v-.4c-.5 4.9-.3 10.9 2.6 16.4 6.3 12.2 19.2 29.1 20.1 36.6.8 7.5 1.1 14.3 1.1 14.3h28.1s.2-6.8 1.1-14.3c.8-7.5 13.8-24.4 20.1-36.6.9-1.7 1.5-3.5 2-5.2-.3.4-.5.8-.6 1.2Z"/><path fill="#FEFCBA" d="M70.7 47.7c-.8-3.9-4.3-7.6-8.5-7.4-1.8-.3-3.7.1-5.4.7-2.4.8-4.6 2.3-6.3 4.1-1.9 1.9-3.4 4.5-3.3 7.2.1 2.7 1.7 5.1 3.7 6.8 1.9 1.6 4.4 2.5 6.8 2.5 2.4 0 4.7-.9 6.8-2.2 3.8-2.4 7.2-7 6.2-11.7Z"/><path fill="#FAE5C4" d="M47.5 60.7c-.5-1.8-1.5-3.6-3.5-3.9-.8-.1-1.9 0-2.7.5-.1 0-.1 0-.2.1-.9.4-1.6 1.1-2 1.9-1 1.8-1 4.1-.2 6 .4.9 1 1.8 1.9 2.3 1 .6 2.3.7 3.4.4 3.1-.9 4-4.5 3.3-7.3Z"/><path fill="#C97F00" d="M92 75.4c-.4-.7-1.1-1.3-1.9-1.4-.8-.2-1.5 0-2.2.4-1.4.7-2.6 2-3.5 3.3-1.2 1.7-2 3.6-2.8 5.5-.8 2-1.4 4.1-1.8 6.3l-.9 4.2c-.7 0-1.4-.1-2.2-.4-2.2-.8-3.6-2.8-4.5-5 .2-1.1.2-2.2.2-3.4 0-1.1.1-2.2 0-3.3 0-1.5-.1-2.9-.4-4.4-.2-1.1-.6-2.5-1.5-3.2-.2-.2-.4-.3-.6-.4-.2-.1-.5.1-.6.3-.8 1.4-.8 3.1-.7 4.7.2 1.8.6 3.6 1 5.3.4 1.6.9 3.2 1.6 4.8-.2 2.3-1.2 5.4-4 5.5-1.4.1-2.6-.9-3.4-2-.2-.2-.3-.4-.5-.6-.1-1.2-.2-2.3-.3-3.5-.2-1.9-.5-3.8-.9-5.7-.3-1.5-.7-3.3-1.8-4.5-.5-.5-1.1-.9-1.8-.9-.2 0-.5.2-.6.4-.5 1.8-.2 3.7.3 5.4.5 1.8 1.3 3.5 2.1 5.3.6 1.3 1.2 2.6 2 3.8.1 3-.1 6-1 8.8-.5 1.5-1.4 3.5-3.1 4h-.1c-.5-2-1-4-1.6-6-.9-2.8-1.9-5.6-2.9-8.4-.5-1.2-.9-2.4-1.4-3.6-.4-1-.7-2-1.2-2.9-.8-1.8-1.9-3.8-3.7-4.7-.8-.4-1.8-.4-2.4.4-.5.8-.5 1.8-.5 2.7 0 1.3.2 2.7.5 4 .5 2.5 1.1 5 1.9 7.5.3 1 .8 2 1.2 2.9.9 1.9 1.8 3.8 3.1 5.5 1.2 1.6 2.8 3 4.8 3.4.4.1.9.1 1.3.1.6 2.3 1.1 4.6 1.6 6.8 1.2 5.5 2.2 11 2.6 16.6.1 1.3.2 2.7.2 4 0 .3.5.1.5-.1.1-5.8-.6-11.6-1.7-17.3-.5-2.8-1.1-5.7-1.8-8.5-.1-.6-.3-1.1-.4-1.7.2-.1.4-.1.5-.2.9-.4 1.6-1.1 2.1-1.9 1.3-2 1.9-4.5 2.1-6.9.1-1.1.2-2.2.2-3.3.7.8 1.6 1.5 2.6 1.7 1.5.3 3.1-.3 4.2-1.4.9-1 1.4-2.3 1.8-3.6.6 1 1.3 2 2.1 2.8 1.3 1.2 2.9 1.8 4.7 1.8-.5 2.9-1 5.8-1.4 8.7-.7 5-1.3 10.1-1.9 15.1-.3 2.5-.6 5-.7 7.6-.1 2.3-.3 4.5-.3 6.8 0 .8 0 1.7-.3 2.5-.3.6.6.7.8.2.4-.8.5-1.6.5-2.5 0-.9 0-1.8.1-2.7.2-2.4.3-4.8.5-7.3s.5-4.9.9-7.3c.3-2.4.6-4.8.9-7.3.6-4.7 1.2-9.3 2-13.9 1.6-.2 3.1-1 4.4-1.9 1.5-1.1 2.8-2.6 4-4.1.9-1.2 1.7-2.5 2.5-3.8.8-1.5 1.5-3.1 1.9-4.8.4-1.4.4-3-.4-4.3ZM53.4 103c-1.5-1.4-2.5-3.2-3.4-5-.4-.9-.8-1.7-1.2-2.6-.2-.4-.4-.9-.6-1.3-.7-2.1-1.3-4.2-1.7-6.3-.3-1.3-.6-2.7-.7-4.1-.1-1-.2-2.1 0-3.1v-.1c0-.1.1-.2.1-.3v-.1s0-.1.1-.1l.1-.1h.2c.1 0 .1 0 .2.1h.2l.9.6c.7.6 1.3 1.4 1.8 2.3 1 1.8 1.6 3.7 2.4 5.6 1 2.6 2 5.3 3 7.9 1 2.8 1.8 5.7 2.5 8.5-1.5-.1-2.9-1-3.9-1.9Zm8.3-14.6c-.7-1.5-1.4-3-2-4.6-.6-1.7-1.1-3.5-1-5.2 0-.2 0-.4.1-.6 1.1.4 1.7 1.9 2 2.9.4 1.4.6 2.8.9 4.3.2 1.5.5 3.1.6 4.6-.2-.5-.4-.9-.6-1.4ZM70 81c-.3-1.6-.6-3.4-.4-5 .1-.5.1-1 .3-1.4.7.5 1 1.4 1.2 2.2.4 1.3.5 2.7.5 4v3.5c0 .8 0 1.5-.1 2.3l-.3-.9c-.4-1.6-.8-3.1-1.2-4.7Zm21 .7c-1.1 2.9-2.9 5.6-4.9 7.9-1.6 1.8-3.8 3.5-6.2 3.9.7-3.9 1.5-7.7 3-11.4.7-1.7 1.5-3.4 2.7-4.9.5-.6 1-1.2 1.6-1.6.5-.4 1.1-.8 1.8-.9 1.5-.2 2.4 1.3 2.7 2.6.3 1.5-.2 3-.7 4.4Z"/><path fill="#4D5052" d="M77.8 148.9H59s-.7 9.2 8.6 9.7h1.6c9.3-.5 8.6-9.7 8.6-9.7Z"/><path fill="#2F7687" d="M82.6 130.4H54.2c-1.3 0-2.3-1-2.3-2.3 0-1.3 1-2.3 2.3-2.3h28.4c1.3 0 2.3 1 2.3 2.3 0 1.3-1 2.3-2.3 2.3ZM82.6 139.4H54.2c-1.3 0-2.3-1-2.3-2.3 0-1.3 1-2.3 2.3-2.3h28.4c1.3 0 2.3 1 2.3 2.3 0 1.2-1 2.3-2.3 2.3Z"/><path fill="#2F7687" d="M82.6 134.9H54.2c-1.3 0-2.3-1-2.3-2.3 0-1.3 1-2.3 2.3-2.3h28.4c1.3 0 2.3 1 2.3 2.3 0 1.3-1 2.3-2.3 2.3ZM82.6 143.8H54.2c-1.3 0-2.3-1-2.3-2.3 0-1.3 1-2.3 2.3-2.3h28.4c1.3 0 2.3 1 2.3 2.3 0 1.3-1 2.3-2.3 2.3Z"/><path fill="#2F7687" d="M82.6 148.3H54.2c-1.3 0-2.3-1-2.3-2.3 0-1.3 1-2.3 2.3-2.3h28.4c1.3 0 2.3 1 2.3 2.3 0 1.3-1 2.3-2.3 2.3Z"/><path fill="#2F7687" d="M82.6 152.8H54.2c-1.3 0-2.3-1-2.3-2.3 0-1.3 1-2.3 2.3-2.3h28.4c1.3 0 2.3 1 2.3 2.3 0 1.2-1 2.3-2.3 2.3Z"/><path fill="#91D9DA" d="M64.8 129.1H53.5c-.5 0-.9-.6-.9-1.3 0-.7.4-1.3.9-1.3h11.3c.5 0 .9.6.9 1.3 0 .8-.4 1.3-.9 1.3ZM64.8 133.9H53.5c-.5 0-.9-.6-.9-1.3 0-.7.4-1.3.9-1.3h11.3c.5 0 .9.6.9 1.3 0 .7-.4 1.3-.9 1.3ZM64.8 138.4H53.5c-.5 0-.9-.6-.9-1.3 0-.7.4-1.3.9-1.3h11.3c.5 0 .9.6.9 1.3 0 .7-.4 1.3-.9 1.3ZM64.8 142.8H53.5c-.5 0-.9-.6-.9-1.3 0-.7.4-1.3.9-1.3h11.3c.5 0 .9.6.9 1.3 0 .7-.4 1.3-.9 1.3ZM64.8 147.1H53.5c-.5 0-.9-.6-.9-1.3 0-.7.4-1.3.9-1.3h11.3c.5 0 .9.6.9 1.3 0 .8-.4 1.3-.9 1.3ZM64.8 151.7H53.5c-.5 0-.9-.6-.9-1.3 0-.7.4-1.3.9-1.3h11.3c.5 0 .9.6.9 1.3 0 .8-.4 1.3-.9 1.3Z"/><path fill="#F7BE5E" d="M69 21.6c-2.3 0-4.3-1.9-4.3-4.3V4.5c0-2.3 1.9-4.3 4.3-4.3 2.3 0 4.3 1.9 4.3 4.3v12.9c-.1 2.3-2 4.2-4.3 4.2ZM104.3 37c1.7 1.6 4.4 1.6 6-.1l8.9-9.3c1.6-1.7 1.6-4.4-.1-6-1.7-1.6-4.4-1.6-6 .1l-8.9 9.3c-1.7 1.7-1.6 4.4.1 6ZM116.8 68.3c.2 2.3 2.3 4 4.7 3.8l12.8-1.3c2.3-.2 4-2.3 3.8-4.7-.2-2.3-2.3-4-4.7-3.8l-12.8 1.3c-2.4.3-4.1 2.4-3.8 4.7ZM105.7 104.3c1.5-1.8 4.2-2.1 6-.6l10 8.2c1.8 1.5 2.1 4.2.6 6-1.5 1.8-4.2 2.1-6 .6l-10-8.2c-1.8-1.5-2.1-4.2-.6-6ZM34 37c-1.7 1.6-4.4 1.6-6-.1l-8.9-9.3c-1.6-1.7-1.6-4.4.1-6 1.7-1.6 4.4-1.6 6 .1l8.9 9.3c1.7 1.7 1.6 4.4-.1 6ZM21.5 68.3c-.2 2.3-2.3 4-4.7 3.8L4 70.8c-2.3-.2-4-2.3-3.8-4.7.2-2.3 2.3-4 4.7-3.8l12.8 1.3c2.3.3 4 2.4 3.8 4.7ZM32.6 104.3c-1.5-1.8-4.2-2.1-6-.6l-10 8.2c-1.8 1.5-2.1 4.2-.6 6 1.5 1.8 4.2 2.1 6 .6l10-8.2c1.8-1.5 2.1-4.2.6-6Z"/></svg>