<svg viewBox="0 0 64 64" xmlns="http://www.w3.org/2000/svg"><circle cx="32" cy="32" fill="#4f5d73" r="32"/><g fill="#e0e0d1"><path d="M47.7 40.6c.2-.4.6-.6 1-.7s.9-.1 1.4.1l2.5 1.2c.5.2.8.6.9 1.1.2.5.1 1.1-.2 1.6s-.8.9-1.2 1c-.5.1-1 0-1.4-.3L48.4 43c-.4-.3-.7-.7-.8-1.1-.1-.5-.1-.9.1-1.3zM16.4 40.8c.5.7.1 1.8-.7 2.4l-2.3 1.6c-.9.6-2 .3-2.7-.7-.6-1-.2-2.3.7-2.7l2.5-1.2c1.1-.4 2.1-.1 2.5.6zM14 31.8c0 .9-.7 1.6-1.8 1.7l-2.8.3c-1 .1-2-.8-2-2s.9-2.1 1.9-2l2.8.2c1.1.2 1.9.9 1.9 1.8zM16.3 22.7c-.2.4-.6.6-1 .7s-.9.1-1.4-.1l-2.5-1.2c-.5-.2-.8-.6-.9-1.1-.2-.5-.1-1.1.2-1.6s.8-.9 1.2-1c.5-.1 1 0 1.4.3l2.3 1.6c.4.3.7.7.8 1.1.2.5.2 1-.1 1.3zM22.9 16.1c-.7.5-1.8.1-2.4-.7l-1.6-2.3c-.6-.9-.3-2 .7-2.7 1-.6 2.3-.2 2.7.7l1.2 2.5c.4 1 .1 2-.6 2.5zM31.9 13.6c-.9 0-1.6-.7-1.7-1.8L29.9 9c-.1-1 .8-2 2-2s2.1.9 2 1.9l-.2 2.8c-.2 1.1-.9 1.9-1.8 1.9zM41 16c-.4-.2-.6-.6-.7-1s-.1-.9.1-1.4l1.2-2.5c.2-.5.6-.8 1.1-.9.5-.2 1.1-.1 1.6.2s.9.8 1 1.2c.1.5 0 1-.3 1.4l-1.6 2.3c-.3.4-.7.7-1.1.8-.5.1-1 .1-1.3-.1zM47.6 22.5c-.5-.7-.1-1.8.7-2.4l2.3-1.6c.9-.6 2-.3 2.7.7.6 1 .2 2.3-.7 2.7L50 23.1c-.9.5-2 .2-2.4-.6zM50.1 31.5c0-.9.7-1.6 1.8-1.7l2.8-.3c1-.1 2 .8 2 2s-.9 2.1-1.9 2l-2.8-.2c-1.1-.1-1.9-.9-1.9-1.8z"/></g><path d="M41.6 24.4c-.4-.4-1.1-.5-1.5-.2l-4.7 2.9-3.1 1.9H32c-2.8 0-5 2.2-5 5v.3c.2 2.5 2.1 4.5 4.6 4.6h.3c2.8 0 5-2.2 5-5v-.3l1.9-3.1 2.9-4.7c.4-.4.3-1-.1-1.4z" fill="#231f20" opacity=".2"/><path d="M41.6 22.4c-.4-.4-1.1-.5-1.5-.2l-4.7 2.9-3.1 1.9H32c-2.8 0-5 2.2-5 5v.3c.2 2.5 2.1 4.5 4.6 4.6h.3c2.8 0 5-2.2 5-5v-.3l1.9-3.1 2.9-4.7c.4-.4.3-1-.1-1.4z" fill="#c75c5c"/><circle cx="32" cy="32" fill="#fff" r="5"/><path d="M40 49c0 1.7-1.3 3-3 3H27c-1.7 0-3-1.3-3-3v-2c0-1.7 1.3-3 3-3h10c1.7 0 3 1.3 3 3z" fill="#f5cf87"/></svg>