<svg width="69" height="60" viewBox="0 0 69 60" fill="none" xmlns="http://www.w3.org/2000/svg">
	<path d="M69 35.5071L54.0473 35.3454L64.9273 45.6079L51.2832 39.4328L57.5466 53.0328L46.7841 42.5792L48.6073 57.4731L41.1824 44.417L39.0799 59.2815L35.0808 44.814L29.5525 58.7669L28.9497 43.7701L20.3927 56.1057L23.3039 41.3882L11.9974 51.2538L18.6284 37.8008L5.01363 44.1083L15.4232 33.3458L0.499879 34.6691L14.1587 28.5674L0 23.7891L14.9527 23.9361L4.07265 13.6736L17.7168 19.8634L11.4387 6.24867L22.2012 16.7023L20.3927 1.80844L27.8029 14.8645L29.9201 0L33.9192 14.4822L39.4475 0.514596L40.0503 15.5261L48.6073 3.17579L45.6814 17.908L57.0026 8.0277L50.3716 21.4954L63.9864 15.1732L53.5621 25.9504L68.4854 24.6271L54.8265 30.714L69 35.5071Z" fill="url(#gradient)"/>
	<defs>
		<linearGradient id="gradient" x1="8.61102" y1="26.578" x2="35.4" y2="37.9562" gradientUnits="userSpaceOnUse">
			<stop stop-color="#FE9A00"/>
			<stop offset="1" stop-color="#FFD230"/>
		</linearGradient>
	</defs>
</svg>
