<svg width="32" height="32" viewBox="0 0 32 32" fill="none" xmlns="http://www.w3.org/2000/svg">
<path d="M29.5 0H2.5C1.11929 0 0 1.11929 0 2.5V29.5C0 30.8807 1.11929 32 2.5 32H29.5C30.8807 32 32 30.8807 32 29.5V2.5C32 1.11929 30.8807 0 29.5 0Z" fill="url(#paint0_linear_1639_2)"/>
<path d="M16.2012 24.168C14.9692 24.168 13.8652 23.968 12.8892 23.568C11.9132 23.168 11.1292 22.576 10.5372 21.792C9.96119 21.008 9.65719 20.064 9.62519 18.96H13.9932C14.0572 19.584 14.2732 20.064 14.6412 20.4C15.0092 20.72 15.4892 20.88 16.0812 20.88C16.6892 20.88 17.1692 20.744 17.5212 20.472C17.8732 20.184 18.0492 19.792 18.0492 19.296C18.0492 18.88 17.9052 18.536 17.6172 18.264C17.3452 17.992 17.0012 17.768 16.5852 17.592C16.1852 17.416 15.6092 17.216 14.8572 16.992C13.7692 16.656 12.8812 16.32 12.1932 15.984C11.5052 15.648 10.9132 15.152 10.4172 14.496C9.92119 13.84 9.67319 12.984 9.67319 11.928C9.67319 10.36 10.2412 9.136 11.3772 8.256C12.5132 7.36 13.9932 6.912 15.8172 6.912C17.6732 6.912 19.1692 7.36 20.3052 8.256C21.4412 9.136 22.0492 10.368 22.1292 11.952H17.6892C17.6572 11.408 17.4572 10.984 17.0892 10.68C16.7212 10.36 16.2492 10.2 15.6732 10.2C15.1772 10.2 14.7772 10.336 14.4732 10.608C14.1692 10.864 14.0172 11.24 14.0172 11.736C14.0172 12.28 14.2732 12.704 14.7852 13.008C15.2972 13.312 16.0972 13.64 17.1852 13.992C18.2732 14.36 19.1532 14.712 19.8252 15.048C20.5132 15.384 21.1052 15.872 21.6012 16.512C22.0972 17.152 22.3452 17.976 22.3452 18.984C22.3452 19.944 22.0972 20.816 21.6012 21.6C21.1212 22.384 20.4172 23.008 19.4892 23.472C18.5612 23.936 17.4652 24.168 16.2012 24.168Z" fill="white"/>
<defs>
<linearGradient id="paint0_linear_1639_2" x1="0" y1="0" x2="32" y2="32" gradientUnits="userSpaceOnUse">
<stop stop-color="#C21500"/>
<stop offset="1" stop-color="#FFC500"/>
</linearGradient>
</defs>
</svg>
